<?xml version="1.0" encoding="iso-8859-1"?>
<!-- Generator: Adobe Illustrator 19.0.0, SVG Export Plug-In . SVG Version: 6.00 Build 0)  -->
<svg version="1.1" id="Capa_1" xmlns="http://www.w3.org/2000/svg" xmlns:xlink="http://www.w3.org/1999/xlink" x="0px" y="0px"
	 viewBox="0 0 496 496" style="enable-background:new 0 0 496 496;" xml:space="preserve">
<path style="fill:#FFA64D;" d="M248,288c-57.344,0-104-46.656-104-104S190.656,80,248,80s104,46.656,104,104S305.344,288,248,288z"
	/>
<g>
	<path style="fill:#333333;" d="M264,128h-8v-16h-16v16h-8c-17.648,0-32,14.352-32,32s14.352,32,32,32h32c8.824,0,16,7.176,16,16
		s-7.176,16-16,16h-32c-8.824,0-16-7.176-16-16v-8h-16v8c0,17.648,14.352,32,32,32h8v16h16v-16h8c17.648,0,32-14.352,32-32
		s-14.352-32-32-32h-32c-8.824,0-16-7.176-16-16s7.176-16,16-16h32c8.824,0,16,7.176,16,16v8h16v-8C296,142.352,281.648,128,264,128
		z"/>
	<rect x="240" y="304" style="fill:#333333;" width="16" height="160"/>
	<rect x="240" y="480" style="fill:#333333;" width="16" height="16"/>
	<rect x="272" y="296" style="fill:#333333;" width="16" height="136"/>
	<rect x="272" y="448" style="fill:#333333;" width="16" height="16"/>
	<rect x="208" y="296" style="fill:#333333;" width="16" height="120"/>
	<rect x="208" y="432" style="fill:#333333;" width="16" height="16"/>
	<path style="fill:#333333;" d="M376.04,368.8l15.92-1.592c-8.304-83.04-50.072-109-51.84-110.064l-8.232,13.72
		C332.248,271.08,368.52,293.664,376.04,368.8z"/>
	<path style="fill:#333333;" d="M453.656,210.344c-1.384-1.384-34.384-33.904-84.344-42.232l-2.624,15.784
		c44.736,7.464,75.36,37.472,75.664,37.776L453.656,210.344z"/>
	<rect x="440" y="168" style="fill:#333333;" width="16" height="24"/>
	<rect x="400" y="208" style="fill:#333333;" width="24" height="16"/>
	
		<rect x="410.54" y="233.45" transform="matrix(-0.7071 0.7071 -0.7071 -0.7071 892.0518 113.4001)" style="fill:#333333;" width="24" height="16"/>
	<rect x="440" y="240" style="fill:#333333;" width="16" height="24"/>
	
		<rect x="465.441" y="229.468" transform="matrix(-0.7071 0.7071 -0.7071 -0.7071 978.9573 77.4388)" style="fill:#333333;" width="16" height="24"/>
	<rect x="472" y="208" style="fill:#333333;" width="24" height="16"/>
	
		<rect x="461.452" y="182.545" transform="matrix(-0.7071 0.7071 -0.7071 -0.7071 942.9687 -9.5005)" style="fill:#333333;" width="24" height="16"/>
	<rect x="440" style="fill:#333333;" width="16" height="24"/>
	
		<rect x="414.521" y="10.526" transform="matrix(-0.7071 0.7071 -0.7071 -0.7071 737.2165 -260.3138)" style="fill:#333333;" width="16" height="24"/>
	<rect x="440" y="72" style="fill:#333333;" width="16" height="24"/>
	
		<rect x="465.44" y="61.467" transform="matrix(-0.7071 0.7071 -0.7071 -0.7071 860.1614 -209.3559)" style="fill:#333333;" width="16" height="24"/>
	<rect x="472" y="40" style="fill:#333333;" width="24" height="16"/>
	
		<rect x="461.451" y="14.544" transform="matrix(-0.7071 0.7071 -0.7071 -0.7071 824.1729 -296.2953)" style="fill:#333333;" width="24" height="16"/>
	<rect x="336" y="360" style="fill:#333333;" width="24" height="16"/>
	
		<rect x="346.573" y="385.464" transform="matrix(-0.7071 0.7071 -0.7071 -0.7071 890.3428 418.1352)" style="fill:#333333;" width="24" height="16"/>
	<rect x="376" y="392" style="fill:#333333;" width="16" height="24"/>
	
		<rect x="401.441" y="381.466" transform="matrix(-0.7071 0.7071 -0.7071 -0.7071 977.1824 382.1693)" style="fill:#333333;" width="16" height="24"/>
	<rect x="408" y="360" style="fill:#333333;" width="24" height="16"/>
	
		<rect x="397.445" y="334.543" transform="matrix(-0.7071 0.7071 -0.7071 -0.7071 941.1801 295.2355)" style="fill:#333333;" width="24" height="16"/>
	<path style="fill:#333333;" d="M450.528,55.584l-5.064-15.168c-2.992,0.992-73.824,24.824-114.472,57.336l10,12.496
		C379.4,79.52,449.824,55.832,450.528,55.584z"/>
	<path style="fill:#333333;" d="M155.88,257.144c-1.776,1.064-43.536,27.024-51.84,110.064l15.92,1.592
		c7.44-74.384,43.832-97.744,44.2-97.968L160,264L155.88,257.144z"/>
	<path style="fill:#333333;" d="M126.688,168.112c-49.96,8.328-82.96,40.848-84.344,42.232l11.312,11.312
		c0.304-0.304,30.712-30.272,75.656-37.768L126.688,168.112z"/>
	<rect x="40" y="168" style="fill:#333333;" width="16" height="24"/>
	<rect x="72" y="208" style="fill:#333333;" width="24" height="16"/>
	
		<rect x="65.428" y="229.449" transform="matrix(-0.7071 0.7071 -0.7071 -0.7071 296.0793 360.2575)" style="fill:#333333;" width="16" height="24"/>
	<rect x="40" y="240" style="fill:#333333;" width="16" height="24"/>
	
		<rect x="10.542" y="233.44" transform="matrix(-0.7071 0.7071 -0.7071 -0.7071 209.2058 396.2235)" style="fill:#333333;" width="24" height="16"/>
	<rect y="208" style="fill:#333333;" width="24" height="16"/>
	
		<rect x="14.546" y="178.551" transform="matrix(-0.7071 0.7071 -0.7071 -0.7071 173.2276 309.3477)" style="fill:#333333;" width="16" height="24"/>
	<rect x="40" style="fill:#333333;" width="16" height="24"/>
	
		<rect x="61.451" y="14.544" transform="matrix(-0.7071 0.7071 -0.7071 -0.7071 141.3301 -13.4526)" style="fill:#333333;" width="24" height="16"/>
	<rect x="40" y="72" style="fill:#333333;" width="16" height="24"/>
	
		<rect x="10.553" y="65.45" transform="matrix(-0.7071 0.7071 -0.7071 -0.7071 90.4373 109.4401)" style="fill:#333333;" width="24" height="16"/>
	<rect y="40" style="fill:#333333;" width="24" height="16"/>
	
		<rect x="14.545" y="10.55" transform="matrix(-0.7071 0.7071 -0.7071 -0.7071 54.4317 22.553)" style="fill:#333333;" width="16" height="24"/>
	<rect x="136" y="360" style="fill:#333333;" width="24" height="16"/>
	
		<rect x="129.43" y="381.461" transform="matrix(-0.7071 0.7071 -0.7071 -0.7071 512.8268 574.502)" style="fill:#333333;" width="16" height="24"/>
	<rect x="104" y="392" style="fill:#333333;" width="16" height="24"/>
	
		<rect x="74.556" y="385.401" transform="matrix(-0.7071 0.7071 -0.7071 -0.7071 425.9364 610.3724)" style="fill:#333333;" width="24" height="16"/>
	<rect x="64" y="360" style="fill:#333333;" width="24" height="16"/>
	
		<rect x="78.549" y="330.549" transform="matrix(-0.7071 0.7071 -0.7071 -0.7071 389.9671 523.5682)" style="fill:#333333;" width="16" height="24"/>
	<path style="fill:#333333;" d="M45.472,55.584c0.712,0.24,71.136,23.936,109.528,54.664l10-12.496
		C124.352,65.232,53.52,41.408,50.528,40.416L45.472,55.584z"/>
</g>
<g>
</g>
<g>
</g>
<g>
</g>
<g>
</g>
<g>
</g>
<g>
</g>
<g>
</g>
<g>
</g>
<g>
</g>
<g>
</g>
<g>
</g>
<g>
</g>
<g>
</g>
<g>
</g>
<g>
</g>
</svg>
